<svg width="45" height="46" viewBox="0 0 45 46" fill="none" xmlns="http://www.w3.org/2000/svg">
<g clip-path="url(#clip0_79_1893)">
<path opacity="0.2" d="M39.2396 33.2779C40.2625 31.4017 40.7938 29.297 40.7838 27.16C40.7738 25.023 40.2229 22.9234 39.1824 21.0568C38.1419 19.1903 36.6457 17.6176 34.8333 16.4854C33.0209 15.3531 30.9513 14.6983 28.8175 14.5818C29.4888 16.4905 29.6928 18.5323 29.4122 20.536C29.1317 22.5398 28.3748 24.4471 27.2051 26.098C26.0354 27.7489 24.487 29.0954 22.6896 30.0244C20.8921 30.9534 18.8982 31.438 16.8749 31.4375C16.6429 31.4375 16.4126 31.4375 16.1841 31.4181C16.7934 33.1477 17.7709 34.7244 19.0493 36.0391C20.3276 37.3538 21.8762 38.3753 23.588 39.0329C25.2998 39.6905 27.134 39.9685 28.9638 39.8477C30.7936 39.7269 32.5753 39.2102 34.1858 38.3333L39.4364 39.8328C39.6173 39.8846 39.8088 39.887 39.991 39.8399C40.1732 39.7927 40.3395 39.6977 40.4726 39.5646C40.6056 39.4315 40.7007 39.2653 40.7478 39.0831C40.795 38.9009 40.7925 38.7094 40.7407 38.5285L39.2396 33.2779Z" fill="#4C45E6"></path>
<path d="M5.5653 31.3953C5.38437 31.4471 5.19288 31.4496 5.01068 31.4024C4.82849 31.3553 4.66223 31.2602 4.52915 31.1271C4.39608 30.9941 4.30103 30.8278 4.25388 30.6456C4.20673 30.4634 4.20919 30.2719 4.261 30.091L5.76041 24.8404C4.30369 22.1679 3.8589 19.0599 4.50757 16.086C5.15623 13.1122 6.8549 10.4717 9.29225 8.64854C11.7296 6.82538 14.7423 5.94168 17.7783 6.15939C20.8143 6.37709 23.6701 7.68163 25.8224 9.8339C27.9747 11.9862 29.2792 14.842 29.4969 17.878C29.7146 20.9139 28.8309 23.9267 27.0078 26.364C25.1846 28.8014 22.5441 30.5001 19.5703 31.1487C16.5964 31.7974 13.4884 31.3526 10.8159 29.8959L5.5653 31.3953Z" stroke="#4C45E6" stroke-width="2.8125" stroke-linecap="round" stroke-linejoin="round"></path>
<path d="M16.1824 31.4181C16.7916 33.1477 17.7692 34.7244 19.0476 36.0391C20.3259 37.3538 21.8745 38.3753 23.5863 39.0329C25.2981 39.6905 27.1323 39.9685 28.9621 39.8477C30.7919 39.7269 32.5736 39.2102 34.1841 38.3333L39.4347 39.8328C39.6156 39.8846 39.8071 39.887 39.9893 39.8399C40.1715 39.7927 40.3378 39.6977 40.4709 39.5646C40.6039 39.4315 40.699 39.2653 40.7461 39.0831C40.7933 38.9009 40.7908 38.7094 40.739 38.5285L39.2396 33.2779C40.2626 31.4017 40.7939 29.297 40.7839 27.16C40.7739 25.023 40.2229 22.9234 39.1824 21.0568C38.1419 19.1903 36.6457 17.6176 34.8333 16.4854C33.0209 15.3531 30.9513 14.6983 28.8175 14.5818" stroke="#4C45E6" stroke-width="2.8125" stroke-linecap="round" stroke-linejoin="round"></path>
</g>
<defs>
<clipPath id="clip0_79_1893">
<rect width="45" height="45" fill="white" transform="translate(0 0.5)"></rect>
</clipPath>
</defs>
</svg>