<svg width="45" height="46" viewBox="0 0 45 46" fill="none" xmlns="http://www.w3.org/2000/svg">
<g clip-path="url(#clip0_77_1884)">
<path opacity="0.2" d="M36.5625 14.3393V13.1562C36.5625 11.2914 35.8217 9.50302 34.5031 8.18441C33.1845 6.86579 31.396 6.125 29.5312 6.125C27.6664 6.125 25.878 6.86579 24.5594 8.18441C23.2408 9.50302 22.5 11.2914 22.5 13.1562C22.5 11.2914 21.7592 9.50302 20.4406 8.18441C19.122 6.86579 17.3335 6.125 15.4687 6.125C13.6039 6.125 11.8155 6.86579 10.4969 8.18441C9.17827 9.50302 8.43748 11.2914 8.43748 13.1562V14.3393C6.7906 14.9198 5.3644 15.9969 4.35555 17.4222C3.34671 18.8475 2.80493 20.5507 2.80493 22.2969C2.80493 24.0431 3.34671 25.7463 4.35555 27.1715C5.3644 28.5968 6.7906 29.674 8.43748 30.2545V31.4375C8.43748 33.3023 9.17827 35.0907 10.4969 36.4093C11.8155 37.728 13.6039 38.4688 15.4687 38.4688C17.3335 38.4688 19.122 37.728 20.4406 36.4093C21.7592 35.0907 22.5 33.3023 22.5 31.4375C22.5 33.3023 23.2408 35.0907 24.5594 36.4093C25.878 37.728 27.6664 38.4688 29.5312 38.4688C31.396 38.4688 33.1845 37.728 34.5031 36.4093C35.8217 35.0907 36.5625 33.3023 36.5625 31.4375V30.2545C38.2094 29.674 39.6356 28.5968 40.6444 27.1715C41.6533 25.7463 42.195 24.0431 42.195 22.2969C42.195 20.5507 41.6533 18.8475 40.6444 17.4222C39.6356 15.9969 38.2094 14.9198 36.5625 14.3393Z" fill="#4C45E6"></path>
<path d="M15.4688 24.4062C16.8594 24.4062 18.2188 24.8186 19.3751 25.5912C20.5314 26.3638 21.4326 27.462 21.9648 28.7468C22.497 30.0315 22.6362 31.4453 22.3649 32.8092C22.0936 34.1732 21.4239 35.426 20.4406 36.4093C19.4573 37.3927 18.2044 38.0623 16.8405 38.3336C15.4765 38.6049 14.0628 38.4657 12.778 37.9335C11.4932 37.4013 10.3951 36.5001 9.62248 35.3439C8.84988 34.1876 8.4375 32.8281 8.4375 31.4375V30.2545" stroke="#4C45E6" stroke-width="2.8125" stroke-linecap="round" stroke-linejoin="round"></path>
<path d="M29.5313 24.4062C28.1406 24.4062 26.7812 24.8186 25.6249 25.5912C24.4686 26.3638 23.5674 27.462 23.0352 28.7468C22.503 30.0315 22.3638 31.4453 22.6351 32.8092C22.9064 34.1732 23.5761 35.426 24.5594 36.4093C25.5427 37.3927 26.7956 38.0623 28.1595 38.3336C29.5235 38.6049 30.9372 38.4657 32.222 37.9335C33.5068 37.4013 34.6049 36.5001 35.3775 35.3439C36.1501 34.1876 36.5625 32.8281 36.5625 31.4375V30.2545" stroke="#4C45E6" stroke-width="2.8125" stroke-linecap="round" stroke-linejoin="round"></path>
<path d="M12.6563 30.7344H11.25C9.2583 30.7362 7.33017 30.0333 5.80683 28.7502C4.2835 27.4671 3.26317 25.6865 2.92642 23.7235C2.58967 21.7604 2.95821 19.7415 3.96682 18.0241C4.97543 16.3067 6.55908 15.0014 8.43751 14.3393V13.1562C8.43751 11.2914 9.1783 9.50302 10.4969 8.18441C11.8155 6.86579 13.604 6.125 15.4688 6.125C17.3336 6.125 19.122 6.86579 20.4406 8.18441C21.7592 9.50302 22.5 11.2914 22.5 13.1562V31.4375" stroke="#4C45E6" stroke-width="2.8125" stroke-linecap="round" stroke-linejoin="round"></path>
<path d="M32.3438 30.7344H33.75C35.7417 30.7362 37.6698 30.0333 39.1932 28.7502C40.7165 27.4671 41.7368 25.6865 42.0736 23.7235C42.4103 21.7604 42.0418 19.7415 41.0332 18.0241C40.0246 16.3067 38.4409 15.0014 36.5625 14.3393V13.1562C36.5625 11.2914 35.8217 9.50302 34.5031 8.18441C33.1845 6.86579 31.3961 6.125 29.5312 6.125C27.6664 6.125 25.878 6.86579 24.5594 8.18441C23.2408 9.50302 22.5 11.2914 22.5 13.1562" stroke="#4C45E6" stroke-width="2.8125" stroke-linecap="round" stroke-linejoin="round"></path>
<path d="M35.1562 20.1875H34.4531C33.1478 20.1875 31.8959 19.6689 30.9728 18.7459C30.0498 17.8229 29.5312 16.571 29.5312 15.2656V14.5625" stroke="#4C45E6" stroke-width="2.8125" stroke-linecap="round" stroke-linejoin="round"></path>
<path d="M9.84375 20.1875H10.5469C11.8522 20.1875 13.1041 19.6689 14.0272 18.7459C14.9502 17.8229 15.4688 16.571 15.4688 15.2656V14.5625" stroke="#4C45E6" stroke-width="2.8125" stroke-linecap="round" stroke-linejoin="round"></path>
</g>
<defs>
<clipPath id="clip0_77_1884">
<rect width="45" height="45" fill="white" transform="translate(0 0.5)"></rect>
</clipPath>
</defs>
</svg>